<svg width="26" height="24" viewBox="0 0 26 24" fill="none" xmlns="http://www.w3.org/2000/svg">
<path d="M18.6533 5.11182H7.34668V16.4733H18.6533V5.11182Z" fill="white"/>
<path d="M15.6899 9.03412L14.6121 9.81577L14.0741 8.99513L16.0144 7.59489H16.7553V14.1991H15.6969L15.6899 9.03412ZM9.66613 13.9243C9.23035 13.6251 8.91707 13.1774 8.78418 12.6641L9.76491 12.2582C9.83344 12.5649 9.99638 12.8421 10.2306 13.0505C10.4552 13.239 10.7406 13.3386 11.0332 13.3306C11.3355 13.3376 11.6298 13.2329 11.8604 13.0363C11.9722 12.947 12.0621 12.8331 12.1232 12.7035C12.1844 12.5738 12.2152 12.4318 12.2132 12.2883C12.2162 12.1419 12.1847 11.9969 12.1212 11.865C12.0577 11.7332 11.9642 11.6183 11.8481 11.5297C11.5871 11.3274 11.2638 11.2233 10.9344 11.2355H10.3682V10.2607H10.8832C11.1687 10.2702 11.4485 10.18 11.6752 10.0054C11.7806 9.92293 11.8648 9.81638 11.9209 9.69462C11.9771 9.57285 12.0035 9.43939 11.998 9.30531C12.0027 9.18459 11.9791 9.06447 11.9291 8.95458C11.8792 8.84469 11.8043 8.74809 11.7105 8.67254C11.5027 8.50914 11.2439 8.425 10.9802 8.43503C10.7304 8.42183 10.4851 8.50488 10.2941 8.66722C10.1239 8.82167 9.99633 9.01765 9.92366 9.23618L8.95351 8.83029C9.09304 8.44673 9.33763 8.11063 9.65908 7.86076C10.039 7.56967 10.5082 7.42108 10.9855 7.44068C11.3554 7.43477 11.7217 7.51421 12.0562 7.67287C12.3577 7.81483 12.6151 8.03665 12.8006 8.3145C12.9796 8.58791 13.073 8.90894 13.0687 9.23618C13.0791 9.55059 12.9916 9.86042 12.8182 10.1224C12.6609 10.3548 12.4496 10.5452 12.2026 10.6772V10.7357C12.5174 10.8645 12.7904 11.0787 12.9911 11.3543C13.2002 11.6425 13.3088 11.992 13.2998 12.3486C13.3054 12.7145 13.2036 13.0739 13.007 13.3819C12.8064 13.6866 12.528 13.9315 12.2009 14.0909C11.841 14.2682 11.4445 14.3575 11.0437 14.3515C10.5522 14.3537 10.0719 14.204 9.6679 13.9225L9.66613 13.9243Z" fill="#557EBF"/>
<path d="M18.6533 16.4731H7.34668V21.5849H18.6533V16.4731Z" fill="#36A852"/>
<path d="M18.6447 0H3.95488C3.50531 0 3.07415 0.179456 2.75625 0.498892C2.43836 0.818329 2.25977 1.25158 2.25977 1.70333V16.4643H7.3557V5.12062H18.6447V0Z" fill="#557EBF"/>
<path d="M2.25977 16.4644V19.8728C2.25977 20.3245 2.43836 20.7578 2.75625 21.0772C3.07415 21.3967 3.50531 21.5761 3.95488 21.5761H7.3557V16.4644H2.25977Z" fill="#1C8140"/>
<path d="M23.7404 5.11182H18.6533V16.4733H23.7404V5.11182Z" fill="#F9BC15"/>
<path d="M23.7405 5.12062V1.70333C23.7405 1.25158 23.5619 0.818328 23.244 0.498892C22.9261 0.179456 22.4949 0 22.0453 0H18.6445V5.12062H23.7405Z" fill="#3968B2"/>
<path d="M18.6533 21.5849L23.7404 16.4731H18.6533V21.5849Z" fill="#EA4535"/>
</svg>
