<svg width="18" height="18" viewBox="0 0 18 18" fill="none" xmlns="http://www.w3.org/2000/svg">
<path d="M8.99824 10.8C9.99236 10.8 10.7982 9.99413 10.7982 9.00001C10.7982 8.0059 9.99236 7.20001 8.99824 7.20001C8.00413 7.20001 7.19824 8.0059 7.19824 9.00001C7.19824 9.99413 8.00413 10.8 8.99824 10.8Z" stroke="#695EE8" stroke-width="1.15385" stroke-linecap="round" stroke-linejoin="round"/>
<path d="M13.4394 10.8001C13.3595 10.9811 13.3357 11.1818 13.371 11.3764C13.4063 11.5711 13.4991 11.7507 13.6374 11.8921L13.6734 11.9281C13.785 12.0395 13.8735 12.1719 13.9339 12.3176C13.9943 12.4632 14.0254 12.6194 14.0254 12.7771C14.0254 12.9348 13.9943 13.0909 13.9339 13.2366C13.8735 13.3823 13.785 13.5146 13.6734 13.6261C13.562 13.7377 13.4296 13.8262 13.2839 13.8866C13.1383 13.9469 12.9821 13.978 12.8244 13.978C12.6667 13.978 12.5106 13.9469 12.3649 13.8866C12.2192 13.8262 12.0869 13.7377 11.9754 13.6261L11.9394 13.5901C11.798 13.4518 11.6184 13.359 11.4238 13.3237C11.2291 13.2884 11.0284 13.3122 10.8474 13.3921C10.67 13.4681 10.5186 13.5944 10.412 13.7554C10.3054 13.9164 10.2482 14.105 10.2474 14.2981V14.4001C10.2474 14.7183 10.121 15.0236 9.89594 15.2486C9.6709 15.4737 9.36567 15.6001 9.04741 15.6001C8.72915 15.6001 8.42393 15.4737 8.19889 15.2486C7.97384 15.0236 7.84741 14.7183 7.84741 14.4001V14.3461C7.84277 14.1475 7.77849 13.9549 7.66292 13.7933C7.54736 13.6317 7.38586 13.5087 7.19941 13.4401C7.01844 13.3602 6.8177 13.3364 6.62306 13.3717C6.42842 13.407 6.24882 13.4998 6.10741 13.6381L6.07141 13.6741C5.95997 13.7857 5.82762 13.8742 5.68194 13.9346C5.53626 13.9949 5.38011 14.026 5.22241 14.026C5.06472 14.026 4.90856 13.9949 4.76289 13.9346C4.61721 13.8742 4.48486 13.7857 4.37341 13.6741C4.26184 13.5626 4.17333 13.4303 4.11294 13.2846C4.05255 13.1389 4.02147 12.9828 4.02147 12.8251C4.02147 12.6674 4.05255 12.5112 4.11294 12.3656C4.17333 12.2199 4.26184 12.0875 4.37341 11.9761L4.40941 11.9401C4.54774 11.7987 4.64053 11.6191 4.67582 11.4244C4.71111 11.2298 4.68728 11.0291 4.60741 10.8481C4.53136 10.6706 4.40507 10.5193 4.24409 10.4127C4.08312 10.3061 3.89449 10.2489 3.70141 10.2481H3.59941C3.28115 10.2481 2.97593 10.1217 2.75089 9.89661C2.52584 9.67157 2.39941 9.36635 2.39941 9.04809C2.39941 8.72983 2.52584 8.4246 2.75089 8.19956C2.97593 7.97451 3.28115 7.84809 3.59941 7.84809H3.65341C3.85201 7.84344 4.04462 7.77916 4.20619 7.66359C4.36777 7.54803 4.49084 7.38653 4.55941 7.20009C4.63928 7.01912 4.66311 6.81837 4.62782 6.62373C4.59253 6.4291 4.49974 6.24949 4.36141 6.10809L4.32541 6.07209C4.21384 5.96064 4.12533 5.82829 4.06494 5.68261C4.00455 5.53694 3.97347 5.38078 3.97347 5.22309C3.97347 5.06539 4.00455 4.90924 4.06494 4.76356C4.12533 4.61788 4.21384 4.48553 4.32541 4.37409C4.43686 4.26251 4.56921 4.174 4.71489 4.11361C4.86056 4.05322 5.01672 4.02214 5.17441 4.02214C5.33211 4.02214 5.48826 4.05322 5.63394 4.11361C5.77962 4.174 5.91197 4.26251 6.02341 4.37409L6.05941 4.41009C6.20082 4.54841 6.38042 4.6412 6.57506 4.67649C6.7697 4.71178 6.97044 4.68795 7.15141 4.60809H7.19941C7.37688 4.53203 7.52822 4.40574 7.63483 4.24476C7.74144 4.08379 7.79864 3.89516 7.79941 3.70209V3.60009C7.79941 3.28183 7.92584 2.9766 8.15089 2.75156C8.37593 2.52651 8.68115 2.40009 8.99941 2.40009C9.31767 2.40009 9.6229 2.52651 9.84794 2.75156C10.073 2.9766 10.1994 3.28183 10.1994 3.60009V3.65409C10.2002 3.84716 10.2574 4.03579 10.364 4.19677C10.4706 4.35774 10.622 4.48403 10.7994 4.56009C10.9804 4.63995 11.1811 4.66378 11.3758 4.62849C11.5704 4.5932 11.75 4.50041 11.8914 4.36209L11.9274 4.32609C12.0389 4.21451 12.1712 4.126 12.3169 4.06561C12.4626 4.00522 12.6187 3.97414 12.7764 3.97414C12.9341 3.97414 13.0903 4.00522 13.2359 4.06561C13.3816 4.126 13.514 4.21451 13.6254 4.32609C13.737 4.43753 13.8255 4.56988 13.8859 4.71556C13.9463 4.86124 13.9774 5.01739 13.9774 5.17509C13.9774 5.33278 13.9463 5.48894 13.8859 5.63461C13.8255 5.78029 13.737 5.91264 13.6254 6.02409L13.5894 6.06009C13.4511 6.20149 13.3583 6.3811 13.323 6.57573C13.2877 6.77037 13.3115 6.97112 13.3914 7.15209V7.20009C13.4675 7.37755 13.5938 7.5289 13.7547 7.6355C13.9157 7.74211 14.1043 7.79932 14.2974 7.80009H14.3994C14.7177 7.80009 15.0229 7.92651 15.2479 8.15156C15.473 8.3766 15.5994 8.68183 15.5994 9.00009C15.5994 9.31835 15.473 9.62357 15.2479 9.84861C15.0229 10.0737 14.7177 10.2001 14.3994 10.2001H14.3454C14.1523 10.2009 13.9637 10.2581 13.8027 10.3647C13.6418 10.4713 13.5155 10.6226 13.4394 10.8001V10.8001Z" stroke="#695EE8" stroke-width="1.15385" stroke-linecap="round" stroke-linejoin="round"/>
</svg>
