<svg width="18" height="18" viewBox="0 0 18 18" fill="none" xmlns="http://www.w3.org/2000/svg">
<path d="M15 6.75H8.25C7.42157 6.75 6.75 7.42157 6.75 8.25V15C6.75 15.8284 7.42157 16.5 8.25 16.5H15C15.8284 16.5 16.5 15.8284 16.5 15V8.25C16.5 7.42157 15.8284 6.75 15 6.75Z" stroke="#695EE8" stroke-linecap="round" stroke-linejoin="round"/>
<path d="M3.75 11.2499H3C2.60218 11.2499 2.22064 11.0918 1.93934 10.8105C1.65804 10.5292 1.5 10.1477 1.5 9.74988V2.99988C1.5 2.60205 1.65804 2.22052 1.93934 1.93922C2.22064 1.65791 2.60218 1.49988 3 1.49988H9.75C10.1478 1.49988 10.5294 1.65791 10.8107 1.93922C11.092 2.22052 11.25 2.60205 11.25 2.99988V3.74988" stroke="#695EE8" stroke-linecap="round" stroke-linejoin="round"/>
</svg>
