<svg width="16" height="16" viewBox="0 0 16 16" fill="none" xmlns="http://www.w3.org/2000/svg">
<path d="M14.0279 5.16924L13.4512 15.3319C13.4326 15.7011 13.0977 16 12.707 16H3.27441C2.88372 16 2.54883 15.7011 2.53023 15.3319L1.95349 5.16924C1.93488 4.78242 2.25117 4.44834 2.66047 4.43076C3.06978 4.41318 3.42326 4.71209 3.44186 5.0989L3.9814 14.5934H12L12.5395 5.0989C12.5581 4.71209 12.9116 4.41318 13.3209 4.43076C13.7302 4.44834 14.0465 4.78242 14.0279 5.16924ZM16 2.81319C16 3.2 15.6651 3.51648 15.2558 3.51648H0.744186C0.334884 3.51648 0 3.2 0 2.81319C0 2.42637 0.334884 2.10989 0.744186 2.10989H4.83721V0.527473C4.83721 0.193407 5.07906 0 5.43255 0H10.5675C10.9209 0 11.1628 0.193407 11.1628 0.527473V2.10989H15.2558C15.6651 2.10989 16 2.42637 16 2.81319ZM6.13953 2.10989H9.86047V1.23077H6.13953V2.10989ZM6.4558 13.5385C6.8279 13.5385 7.10697 13.2044 7.10697 12.8703L6.92092 5.27473C6.92092 4.94066 6.62325 4.65934 6.25116 4.65934C5.89767 4.65934 5.59999 4.94066 5.6186 5.2923L5.80464 12.9055C5.80464 13.2396 6.10232 13.5385 6.4558 13.5385ZM9.52557 13.5385C9.87906 13.5385 10.1767 13.2571 10.1767 12.9231L10.3628 5.32748C10.3628 4.99342 10.0837 4.6945 9.73024 4.6945C9.35815 4.6945 9.07906 4.95824 9.06046 5.2923L8.87441 12.8879C8.8558 13.2396 9.15348 13.5385 9.52557 13.5385C9.50697 13.5385 9.50697 13.5385 9.52557 13.5385Z" fill="#FE3D2E"/>
</svg>
