<svg width="17" height="17" viewBox="0 0 17 17" fill="none" xmlns="http://www.w3.org/2000/svg">
<path d="M16.2785 8.50388C16.2785 7.94301 16.2243 7.36406 16.1338 6.82129H8.2998V10.0236H12.7867C12.6058 11.0549 12.0087 11.9595 11.1222 12.5385L13.7999 14.6191C15.3739 13.1536 16.2785 11.0187 16.2785 8.50388Z" fill="#4280EF"/>
<path d="M8.2997 16.6092C10.5431 16.6092 12.4248 15.8674 13.7998 14.601L11.1221 12.5384C10.3803 13.045 9.42142 13.3345 8.2997 13.3345C6.12862 13.3345 4.30129 11.869 3.63187 9.91504L0.881836 12.0318C2.29304 14.8362 5.15163 16.6092 8.2997 16.6092Z" fill="#34A353"/>
<path d="M3.63204 9.89679C3.28828 8.86552 3.28828 7.7438 3.63204 6.71253L0.882002 4.57764C-0.294001 6.92964 -0.294001 9.69777 0.882002 12.0317L3.63204 9.89679Z" fill="#F6B704"/>
<path d="M8.2997 3.29312C9.4757 3.27503 10.6336 3.72734 11.4839 4.54149L13.854 2.1533C12.3524 0.742102 10.3622 -0.0177766 8.2997 0.000315764C5.15163 0.000315764 2.29304 1.77337 0.881836 4.57768L3.63187 6.71257C4.30129 4.74051 6.12862 3.29312 8.2997 3.29312Z" fill="#E54335"/>
</svg>
