<svg width="116" height="24" viewBox="0 0 116 24" fill="none" xmlns="http://www.w3.org/2000/svg">
<path d="M113.715 18.2857H111.381L109.715 19.9386V22.2999L111.381 24H113.715L115.429 22.2999V19.9386L113.715 18.2857Z" fill="#132C4A"/>
<path d="M4.46074 1.04643e-06L14.1281 0L15.5156 1.40367V3.3578L14.1281 4.7979L4.46073 4.7979L4.46073 9.60105L11.9719 9.60105L13.3175 10.9889V12.9715L11.9719 14.399H4.46073V22.5725L3.13544 24H1.29297L0 22.5725V14.399L4.39608 9.60105L0 9.60105L6.41196e-06 4.7979L4.46074 1.04643e-06Z" fill="#39E489"/>
<path fill-rule="evenodd" clip-rule="evenodd" d="M106.85 0H97.1603L95.8888 1.36593L95.8679 1.38767V9.6H100.299L95.8679 14.3974V22.5719L97.1603 24H98.9697L100.299 22.5719V14.3974H106.85L111.281 9.6V4.79738L106.85 0ZM100.299 9.6V4.79738H106.825V9.6H100.299Z" fill="#39E489"/>
<path d="M76.0881 4.79825L80.4924 0H87.0452L91.4495 4.79825V22.5724L90.1578 24H88.3493L87.0207 22.5724V14.4H80.5169V22.5724L79.1883 24H77.3798L76.0881 22.5724V14.4L80.5169 9.6H87.0207V4.79825H80.5169V9.6H76.0881V4.79825Z" fill="#39E489"/>
<path d="M60.6547 22.5724V14.4H67.2205V22.5724L68.5553 24H70.372L71.6697 22.5724V1.42758L70.372 0H68.5553L67.2205 1.42758V9.6H60.6547V1.42758L59.3199 0H57.5032L56.2055 1.42758V9.6H60.6547L56.2055 14.4V22.5724L57.5032 24H59.3199L60.6547 22.5724Z" fill="#39E489"/>
<path d="M42.0546 0H50.4455L51.7871 1.38782V3.37043L50.4455 4.7979H42.0794V19.2021H50.4455L51.7871 20.6296V22.6122L50.4455 24H42.0546L37.6073 19.2021V14.399L42.0794 9.6L37.6073 9.60105V4.7979L42.0546 0Z" fill="#39E489"/>
<path d="M21.2248 0H31.8586L33.1877 1.3871V3.36868L31.8586 4.79541H28.7626V9.62981H24.3324V4.79541H21.2248L19.9326 3.36868V1.3871L21.2248 0Z" fill="#39E489"/>
<path d="M28.7626 9.62981V19.2046H31.8586L33.1877 20.5917V22.5733L31.8586 24H21.2248L19.9326 22.5733V20.5917L21.2248 19.2046H24.3324V14.4172L28.7626 9.62981Z" fill="#39E489"/>
</svg>
