<svg width="17" height="15" viewBox="0 0 17 15" fill="none" xmlns="http://www.w3.org/2000/svg">
<path d="M12.9629 10.2445V9.74953V9.06604V5.84892V5.16543L13.4895 4.06947L16.1226 1.98365C16.4737 1.68905 17.0003 1.93652 17.0003 2.39611V12.3656C17.0003 12.8252 16.462 13.0727 16.1109 12.7781L12.9629 10.2445Z" fill="#00AC47"/>
<path d="M4.24993 0.474731L0 4.72466H4.24993V0.474731Z" fill="#EA4335"/>
<path d="M4.24993 4.72461H0V10.2495H4.24993V4.72461Z" fill="#2684FC"/>
<path d="M0 10.2496V13.0829C0 13.8621 0.637489 14.4996 1.41665 14.4996H4.24993V10.2496H0Z" fill="#0066DA"/>
<path d="M13.4936 1.87513C13.4936 1.10491 12.8697 0.474731 12.1071 0.474731H9.33398H4.25V4.72466H9.45617V7.48712L13.4936 7.35996V1.87513Z" fill="#FFBA00"/>
<path d="M9.45617 10.2496H4.25V14.4995H9.33398H12.1071C12.8697 14.4995 13.4936 13.8702 13.4936 13.1012V7.48712H9.45617V10.2496Z" fill="#00AC47"/>
<path d="M13.4935 4.0871V10.6745L9.45605 7.48704L13.4935 4.0871Z" fill="#00832D"/>
</svg>
