<svg width="32" height="32" viewBox="0 0 32 32" fill="none" xmlns="http://www.w3.org/2000/svg">
<path fill-rule="evenodd" clip-rule="evenodd" d="M16.0003 31.2133C7.61124 31.2133 0.787109 24.3891 0.787109 16C0.787108 7.61098 7.61243 0.786842 16.0003 0.786842C24.3882 0.786841 31.2135 7.61097 31.2135 16C31.2135 24.3891 24.3894 31.2133 16.0003 31.2133ZM16.0003 28.8565C23.0896 28.8565 28.8567 23.0882 28.8567 16C28.8567 8.91194 23.0896 3.14364 16.0003 3.14364C8.91102 3.14364 3.14391 8.91076 3.14391 16C3.14391 23.0882 8.91102 28.8565 16.0003 28.8565ZM11.7346 15.1634L17.6267 9.27132C18.0862 8.8141 18.8286 8.8141 19.2882 9.27132C19.7454 9.73093 19.7454 10.4733 19.2882 10.9329L14.2329 16L19.2882 21.0554C19.7112 21.5492 19.6535 22.2939 19.1597 22.7169C18.719 23.0952 18.0674 23.0952 17.6267 22.7169L11.7346 16.8249C11.2774 16.3653 11.2774 15.623 11.7346 15.1634Z" fill="#868EB7"/>
</svg>
