<svg width="110" height="113" viewBox="0 0 110 113" fill="none" xmlns="http://www.w3.org/2000/svg">
<path d="M81.3472 12.7964H12.7934C7.38465 12.7964 3 17.181 3 22.5898V91.1436C3 96.5523 7.38465 100.937 12.7934 100.937H81.3472C86.7559 100.937 91.1406 96.5523 91.1406 91.1436V22.5898C91.1406 17.181 86.7559 12.7964 81.3472 12.7964Z" stroke="#BDBDBD" stroke-width="4.42371" stroke-linecap="round" stroke-linejoin="round"/>
<path d="M66.6543 3V22.5868" stroke="#BDBDBD" stroke-width="4.42371" stroke-linecap="round" stroke-linejoin="round"/>
<path d="M27.4854 3V22.5868" stroke="#BDBDBD" stroke-width="4.42371" stroke-linecap="round" stroke-linejoin="round"/>
<path d="M3 42.175H91.1406" stroke="#BDBDBD" stroke-width="4.42371" stroke-linecap="round" stroke-linejoin="round"/>
<path d="M99.0947 78.1262H85.2272L75.0389 87.8419V102.372L85.2272 112.087H99.0947L109 102.372V87.8419L99.0947 78.1262Z" fill="#695EE8" stroke="#F5F2F0" stroke-width="1.28966"/>
<path d="M92.2448 102.763C91.2046 102.763 90.2549 102.567 89.3956 102.175C88.5363 101.783 87.8052 101.232 87.2022 100.524C86.5992 99.8153 86.1243 98.956 85.7776 97.946C85.4459 96.936 85.2801 95.8204 85.2801 94.5993C85.2801 93.3933 85.4459 92.2853 85.7776 91.2753C86.1243 90.2653 86.5992 89.406 87.2022 88.6975C87.8203 87.9889 88.559 87.4387 89.4182 87.0467C90.2775 86.6548 91.2197 86.4588 92.2448 86.4588C93.285 86.4588 94.2347 86.6548 95.094 87.0467C95.9533 87.4387 96.6844 87.9889 97.2874 88.6975C97.8904 89.406 98.3578 90.2653 98.6894 91.2753C99.0361 92.2853 99.2095 93.3933 99.2095 94.5993C99.2095 95.8204 99.0437 96.936 98.712 97.946C98.3804 98.956 97.9055 99.8153 97.2874 100.524C96.6844 101.232 95.9533 101.783 95.094 102.175C94.2347 102.567 93.285 102.763 92.2448 102.763ZM92.2448 100.072C93.4659 100.072 94.4307 99.5817 95.1392 98.6018C95.8478 97.6219 96.202 96.2878 96.202 94.5993C96.202 92.9411 95.8402 91.622 95.1166 90.6421C94.4081 89.6472 93.4508 89.1497 92.2448 89.1497C91.0388 89.1497 90.0815 89.6472 89.373 90.6421C88.6645 91.622 88.3102 92.9411 88.3102 94.5993C88.3102 96.2878 88.6645 97.6219 89.373 98.6018C90.0815 99.5817 91.0388 100.072 92.2448 100.072Z" fill="white"/>
</svg>
