<svg width="110" height="95" viewBox="0 0 110 95" fill="none" xmlns="http://www.w3.org/2000/svg">
<path d="M66.464 9.48878H27.0334L23.0754 13.2121V91.2004L27.0334 94.9238H82.4057L86.2537 91.2004V29.7341L66.464 9.48878Z" fill="#E5E9EA"/>
<rect x="34.47" y="80.7437" width="40.3907" height="2.47758" fill="white"/>
<rect x="34.47" y="71.2245" width="40.3907" height="2.47758" fill="white"/>
<rect x="34.47" y="61.7054" width="40.3907" height="2.47758" fill="white"/>
<rect x="34.47" y="52.1863" width="40.3907" height="2.47758" fill="white"/>
<rect x="92.7982" y="14.5382" width="9.77534" height="1.45259" fill="#E5E9EA"/>
<rect x="98.4108" y="10.3768" width="9.77534" height="1.45259" transform="rotate(90 98.4108 10.3768)" fill="#E5E9EA"/>
<rect x="2.38922" y="52.6988" width="9.77534" height="1.45259" fill="#E5E9EA"/>
<rect x="8.0018" y="48.5374" width="9.77534" height="1.45259" transform="rotate(90 8.0018 48.5374)" fill="#E5E9EA"/>
<rect x="9.35715" y="2.39009" width="5.61448" height="0.834298" fill="#E5E9EA"/>
<rect x="12.5805" width="5.61448" height="0.834298" transform="rotate(90 12.5805 0)" fill="#E5E9EA"/>
<rect x="102.774" y="49.6882" width="5.61448" height="0.834298" fill="#E5E9EA"/>
<rect x="105.998" y="47.2981" width="5.61448" height="0.834298" transform="rotate(90 105.998 47.2981)" fill="#E5E9EA"/>
<rect y="81.5653" width="5.61448" height="0.834298" fill="#E5E9EA"/>
<rect x="3.22339" y="79.1752" width="5.61448" height="0.834298" transform="rotate(90 3.22339 79.1752)" fill="#E5E9EA"/>
<path d="M56.6986 20.1522H52.5461L49.58 23.0938V27.296L52.5461 30.3217H56.6986L59.7495 27.296V23.0938L56.6986 20.1522Z" stroke="white" stroke-width="2.27869"/>
<path d="M50.2708 33.6852H58.9108L64.2698 38.6477V43.3705H45.0607V38.6477L50.2708 33.6852Z" stroke="white" stroke-width="2.27869"/>
<path d="M104.483 65.7334H97.4404L92.2659 70.7363V78.2183L97.4404 83.2212H104.483L109.514 78.2183V70.7363L104.483 65.7334Z" fill="#D5D8E2"/>
<path d="M12.797 17.75H5.75392L0.579422 22.753V30.2349L5.75392 35.2379H12.797L17.8277 30.2349V22.753L12.797 17.75Z" fill="#D5D8E2"/>
<path fill-rule="evenodd" clip-rule="evenodd" d="M96.4683 72.9656L96.9596 72.1102L97.8902 72.238L98.6864 71.4375L98.5593 70.5019L99.4102 70.0081L100.405 70.7677L101.346 70.7901L102.37 70.0081L103.221 70.502L103.09 71.4695L103.858 72.2424L104.821 72.1103L105.312 72.9657L104.583 73.931L104.593 74.9743L105.359 75.989L104.868 76.8444L103.893 76.7105L103.135 77.4723L103.268 78.4527L102.418 78.9465L101.486 78.2359L100.309 78.2244L99.3629 78.9465L98.512 78.4527L98.6408 77.5042L97.8556 76.7149L96.9122 76.8444L96.421 75.989L97.1881 74.9732L97.1624 73.8847L96.4683 72.9656ZM100.185 72.7809H101.588L102.591 73.7695V75.248L101.588 76.2366H100.185L99.1535 75.248V73.7695L100.185 72.7809Z" fill="#A8ABB3"/>
<path d="M12.15 22.7776H10.2981L9.20743 23.9138L8.1471 22.7776H6.2952L4.93462 24.195V26.2198L9.2059 31.4492L13.4727 26.2198V24.195L12.15 22.7776Z" fill="#A8ABB3"/>
</svg>
