<svg width="18" height="18" viewBox="0 0 18 18" fill="none" xmlns="http://www.w3.org/2000/svg">
<path d="M15.0279 6.16924L14.4512 16.3319C14.4326 16.7011 14.0977 17 13.707 17H4.27441C3.88372 17 3.54883 16.7011 3.53023 16.3319L2.95349 6.16924C2.93488 5.78242 3.25117 5.44834 3.66047 5.43076C4.06978 5.41318 4.42326 5.71209 4.44186 6.0989L4.9814 15.5934H13L13.5395 6.0989C13.5581 5.71209 13.9116 5.41318 14.3209 5.43076C14.7302 5.44834 15.0465 5.78242 15.0279 6.16924ZM17 3.81319C17 4.2 16.6651 4.51648 16.2558 4.51648H1.74419C1.33488 4.51648 1 4.2 1 3.81319C1 3.42637 1.33488 3.10989 1.74419 3.10989H5.83721V1.52747C5.83721 1.19341 6.07906 1 6.43255 1H11.5675C11.9209 1 12.1628 1.19341 12.1628 1.52747V3.10989H16.2558C16.6651 3.10989 17 3.42637 17 3.81319ZM7.13953 3.10989H10.8605V2.23077H7.13953V3.10989ZM7.4558 14.5385C7.8279 14.5385 8.10697 14.2044 8.10697 13.8703L7.92092 6.27473C7.92092 5.94066 7.62325 5.65934 7.25116 5.65934C6.89767 5.65934 6.59999 5.94066 6.6186 6.2923L6.80464 13.9055C6.80464 14.2396 7.10232 14.5385 7.4558 14.5385ZM10.5256 14.5385C10.8791 14.5385 11.1767 14.2571 11.1767 13.9231L11.3628 6.32748C11.3628 5.99342 11.0837 5.6945 10.7302 5.6945C10.3581 5.6945 10.0791 5.95824 10.0605 6.2923L9.87441 13.8879C9.8558 14.2396 10.1535 14.5385 10.5256 14.5385C10.507 14.5385 10.507 14.5385 10.5256 14.5385Z" fill="#FE3D2E"/>
</svg>
