<svg width="17" height="13" viewBox="0 0 17 13" fill="none" xmlns="http://www.w3.org/2000/svg">
<path fill-rule="evenodd" clip-rule="evenodd" d="M2.34319 6.20317C2.41605 6.32908 2.51264 6.48954 2.6323 6.67482C2.93965 7.15072 3.39481 7.78358 3.98573 8.41389C5.17973 9.68749 6.84906 10.8699 8.91607 10.8699C10.9831 10.8699 12.6524 9.68749 13.8464 8.41389C14.4373 7.78358 14.8925 7.15072 15.1998 6.67482C15.3195 6.48954 15.4161 6.32908 15.489 6.20317C15.4161 6.07726 15.3195 5.9168 15.1998 5.73152C14.8925 5.25562 14.4373 4.62276 13.8464 3.99245C12.6524 2.71885 10.9831 1.53647 8.91607 1.53647C6.84906 1.53647 5.17973 2.71885 3.98573 3.99245C3.39481 4.62276 2.93965 5.25562 2.6323 5.73152C2.51264 5.9168 2.41605 6.07726 2.34319 6.20317ZM16.2495 6.20317C16.8457 5.90502 16.8456 5.9048 16.8455 5.90455L16.8444 5.90241L16.8421 5.89786L16.8346 5.88305C16.8282 5.87068 16.8192 5.85337 16.8076 5.83146C16.7844 5.78763 16.7508 5.72532 16.7068 5.64716C16.6189 5.49092 16.4896 5.27084 16.3199 5.00814C15.9814 4.48403 15.4782 3.78355 14.8191 3.08052C13.5131 1.68743 11.5158 0.203125 8.91607 0.203125C6.31638 0.203125 4.31903 1.68743 3.01301 3.08052C2.35392 3.78355 1.85073 4.48403 1.51224 5.00814C1.34259 5.27084 1.21321 5.49092 1.12533 5.64716C1.08137 5.72532 1.04771 5.78763 1.02452 5.83146C1.01292 5.85337 1.00393 5.87068 0.997575 5.88305L0.990009 5.89786L0.987709 5.90241L0.98693 5.90396C0.986807 5.90421 0.986398 5.90502 1.58269 6.20317L0.986398 5.90502C0.892555 6.09271 0.892555 6.31363 0.986398 6.50131L1.58269 6.20317C0.986398 6.50131 0.986276 6.50107 0.986398 6.50131L0.987709 6.50392L0.990009 6.50848L0.997575 6.52329C1.00393 6.53566 1.01292 6.55296 1.02452 6.57488C1.04771 6.61871 1.08137 6.68102 1.12533 6.75918C1.21321 6.91541 1.34259 7.1355 1.51224 7.39819C1.85073 7.92231 2.35392 8.62279 3.01301 9.32582C4.31903 10.7189 6.31638 12.2032 8.91607 12.2032C11.5158 12.2032 13.5131 10.7189 14.8191 9.32582C15.4782 8.62279 15.9814 7.92231 16.3199 7.39819C16.4896 7.1355 16.6189 6.91541 16.7068 6.75918C16.7508 6.68102 16.7844 6.61871 16.8076 6.57488C16.8192 6.55296 16.8282 6.53566 16.8346 6.52329L16.8421 6.50848L16.8444 6.50392L16.8452 6.50237C16.8453 6.50213 16.8457 6.50131 16.2495 6.20317ZM16.2495 6.20317L16.8457 6.50131C16.9396 6.31363 16.9394 6.09224 16.8455 5.90455L16.2495 6.20317Z" fill="#695EE8"/>
<path fill-rule="evenodd" clip-rule="evenodd" d="M8.91571 4.86948C8.17932 4.86948 7.58237 5.46643 7.58237 6.20282C7.58237 6.9392 8.17932 7.53616 8.91571 7.53616C9.65209 7.53616 10.2491 6.9392 10.2491 6.20282C10.2491 5.46643 9.65209 4.86948 8.91571 4.86948ZM6.24902 6.20282C6.24902 4.73005 7.44294 3.53613 8.91571 3.53613C10.3885 3.53613 11.5824 4.73005 11.5824 6.20282C11.5824 7.67559 10.3885 8.86951 8.91571 8.86951C7.44294 8.86951 6.24902 7.67559 6.24902 6.20282Z" fill="#695EE8"/>
</svg>
